<svg xmlns="http://www.w3.org/2000/svg" version="1.1" xmlns:xlink="http://www.w3.org/1999/xlink" xmlns:svgjs="http://svgjs.dev/svgjs" width="1000" height="189" viewBox="0 0 1000 189"><g transform="matrix(1,0,0,1,-0.6060581596726138,-0.21668898148563187)"><svg viewBox="0 0 396 75" data-background-color="#ffffff" preserveAspectRatio="xMidYMid meet" height="189" width="1000" xmlns="http://www.w3.org/2000/svg" xmlns:xlink="http://www.w3.org/1999/xlink"><g id="tight-bounds" transform="matrix(1,0,0,1,0.23999903123035438,0.0859876910657249)"><svg viewBox="0 0 395.52 74.82802461786858" height="74.82802461786858" width="395.52"><g><svg viewBox="0 0 572.485073981757 108.30786612375917" height="74.82802461786858" width="395.52"><g><rect width="6.329262867924222" height="108.30786612375917" x="154.06706015068033" y="0" fill="#ee3e38" opacity="1" stroke-width="0" stroke="transparent" fill-opacity="1" class="rect-o-0" data-fill-palette-color="primary" rx="1%" id="o-0" data-palette-color="#ee3e38"></rect></g><g transform="matrix(1,0,0,1,176.96507398175697,0.2694225525466578)"><svg viewBox="0 0 395.52 107.76902101866585" height="107.76902101866585" width="395.52"><g><svg viewBox="0 0 395.52 107.76902101866585" height="107.76902101866585" width="395.52"><g><svg viewBox="0 0 395.52 76.06530855018586" height="76.06530855018586" width="395.52"><g transform="matrix(1,0,0,1,0,0)"><svg width="395.52" viewBox="3.4999985694885254 -35.150001525878906 201.75 35.80000305175781" height="76.06530855018586" data-palette-color="#ee3e38"><svg></svg><g class="undefined-text-0" data-fill-palette-color="primary" id="text-0"><path xmlns="http://www.w3.org/2000/svg" d="M31.9-34.5h5.4c1.3 0 1.967 0.683 2 2.05v0l1.4 32.45h-4.9l-1.25-30.45h-1l-7.3 24.75c-0.267 1.1-0.967 1.65-2.1 1.65v0h-4.1c-1.167 0-1.9-0.55-2.2-1.65v0l-7.3-24.75h-1l-1.15 30.45h-4.9l1.35-32.45c0.067-1.367 0.733-2.05 2-2.05v0h5.4c1.067 0 1.767 0.55 2.1 1.65v0l6.05 20.4c0.267 0.767 0.483 1.533 0.65 2.3 0.167 0.767 0.367 1.567 0.6 2.4v0h0.85c0.233-0.833 0.443-1.633 0.63-2.4 0.18-0.767 0.387-1.567 0.62-2.4v0l6.05-20.3c0.267-1.1 0.967-1.65 2.1-1.65zM61-35.15v0c2.533 0 4.693 0.3 6.48 0.9 1.78 0.6 3.203 1.583 4.27 2.95 1.067 1.367 1.843 3.2 2.33 5.5 0.48 2.3 0.72 5.15 0.72 8.55v0c0 3.367-0.24 6.21-0.72 8.53-0.487 2.313-1.263 4.153-2.33 5.52-1.067 1.367-2.49 2.35-4.27 2.95-1.787 0.6-3.947 0.9-6.48 0.9v0c-2.533 0-4.69-0.3-6.47-0.9-1.787-0.6-3.22-1.583-4.3-2.95-1.087-1.367-1.88-3.207-2.38-5.52-0.5-2.32-0.75-5.163-0.75-8.53v0c0-3.4 0.25-6.25 0.75-8.55 0.5-2.3 1.293-4.133 2.38-5.5 1.08-1.367 2.513-2.35 4.3-2.95 1.78-0.6 3.937-0.9 6.47-0.9zM61-30.8v0c-2.167 0-3.883 0.417-5.15 1.25-1.267 0.833-2.157 2.223-2.67 4.17-0.52 1.953-0.78 4.663-0.78 8.13v0c0 3.433 0.26 6.133 0.78 8.1 0.513 1.967 1.403 3.367 2.67 4.2 1.267 0.833 2.983 1.25 5.15 1.25v0c2.167 0 3.877-0.417 5.13-1.25 1.247-0.833 2.137-2.233 2.67-4.2 0.533-1.967 0.8-4.667 0.8-8.1v0c0-3.467-0.267-6.177-0.8-8.13-0.533-1.947-1.423-3.337-2.67-4.17-1.253-0.833-2.963-1.25-5.13-1.25zM102.3-34.5h5.2l-10.3 33.1c-0.133 0.367-0.367 0.69-0.7 0.97-0.333 0.287-0.717 0.43-1.15 0.43v0h-4.95c-0.467 0-0.867-0.143-1.2-0.43-0.333-0.28-0.567-0.603-0.7-0.97v0l-10.25-33.1h5.2l7.8 26.9c0.167 0.633 0.333 1.257 0.5 1.87 0.167 0.62 0.317 1.247 0.45 1.88v0h1.35c0.133-0.633 0.283-1.267 0.45-1.9 0.167-0.633 0.35-1.267 0.55-1.9v0zM112.45-34.5h5v34.5h-5zM132.35-34.55v0c1.667 0 3.367 0 5.1 0 1.733 0 3.443 0.023 5.13 0.07 1.68 0.053 3.287 0.13 4.82 0.23v0l-0.2 3.85h-13.75c-1 0-1.733 0.25-2.2 0.75-0.467 0.5-0.7 1.3-0.7 2.4v0 20c0 1.1 0.233 1.907 0.7 2.42 0.467 0.52 1.2 0.78 2.2 0.78v0h13.75l0.2 3.8c-1.533 0.1-3.14 0.167-4.82 0.2-1.687 0.033-3.397 0.06-5.13 0.08-1.733 0.013-3.433 0.02-5.1 0.02v0c-2.067 0-3.707-0.56-4.92-1.68-1.22-1.113-1.847-2.603-1.88-4.47v0-22.3c0.033-1.9 0.66-3.4 1.88-4.5 1.213-1.1 2.853-1.65 4.92-1.65zM126.45-16.25v-3.85h18.8v3.85zM160.7-34.55v0c1.633 0 3.283 0.01 4.95 0.03 1.667 0.013 3.317 0.037 4.95 0.07 1.633 0.033 3.183 0.117 4.65 0.25v0l-0.25 3.8h-12.85c-1.133 0-1.957 0.25-2.47 0.75-0.52 0.5-0.78 1.3-0.78 2.4v0 27.25h-5v-28.2c0-2 0.617-3.56 1.85-4.68 1.233-1.113 2.883-1.67 4.95-1.67zM154.75-15.7v-3.9h18.35v3.9zM200-34.5h5.25l-11.65 22.95h-4.55l-11.7-22.95h5.3l7 14.2c0.3 0.633 0.567 1.293 0.8 1.98 0.233 0.68 0.467 1.353 0.7 2.02v0h0.35c0.233-0.667 0.473-1.34 0.72-2.02 0.253-0.687 0.513-1.33 0.78-1.93v0zM188.8-14.95h5v14.95h-5z" fill="#ee3e38" fill-rule="nonzero" stroke="none" stroke-width="1" stroke-linecap="butt" stroke-linejoin="miter" stroke-miterlimit="10" stroke-dasharray="" stroke-dashoffset="0" font-family="none" font-weight="none" font-size="none" text-anchor="none" style="mix-blend-mode: normal" data-fill-palette-color="primary" opacity="1"></path></g></svg></g></svg></g><g transform="matrix(1,0,0,1,0,92.63405951333827)"><svg viewBox="0 0 232.20979199999996 15.134961505327587" height="15.134961505327587" width="232.20979199999996"><g transform="matrix(1,0,0,1,0,0)"><svg width="232.20979199999996" viewBox="5 -28.75 441.07000732421875 28.75" height="15.134961505327587" data-palette-color="#8d021f"><path d="M5-28.75L5-28.75 10.7-28.75 21-19.05 21-11.5 11.3-20.65 11.3 0 5 0 5-28.75ZM39.45-28.75L39.45-28.75 33.8-28.75 23.45-19.05 23.45-11.5 33.15-20.65 33.15 0 39.45 0 39.45-28.75ZM48.45-25.3L48.45-25.3 54.3-28.75 64.65-28.75 64.65-23.1 54.75-23.1 54.75-5.85 64.45-5.85 64.45 0 54.3 0 48.45-3.4 48.45-25.3ZM82.9-25.3L82.9-25.3 77.25-28.75 66.9-28.75 66.9-23.1 76.6-23.1 76.6-5.85 66.9-5.85 66.9 0 77.25 0 82.9-3.4 82.9-25.3ZM93.1-28.75L93.1-28.75 103.4-11.5 103.4 0 87.4-26.9 93.1-28.75ZM116.2-28.75L116.2-28.75 105.85-11.5 105.85 0 121.85-26.9 116.2-28.75ZM126.34-28.75L126.34-28.75 132.64-28.75 132.64 0 126.34 0 126.34-28.75ZM141.64-28.75L141.64-28.75 157.64-28.75 157.64-22.85 147.94-22.85 147.94-17.2 157.64-17.2 157.64-11.5 147.94-11.5 147.94-5.65 157.44-5.65 157.44 0 141.64 0 141.64-28.75ZM160.09-5.65L160.09-5.65 160.09 0 176.09 0 176.09-5.65 160.09-5.65ZM176.09-22.85L176.09-22.85 176.09-28.75 159.89-28.75 159.89-22.85 176.09-22.85ZM167.99-11.5L167.99-11.5 167.99-17.2 159.89-17.2 159.89-11.5 167.99-11.5ZM205.14 0L199.44 0 193.59-26.9 199.44-28.75 203.94-6.9 209.79-13.75 209.79-5.25 205.14 0ZM222.39 0L222.39 0 216.69 0 212.04-5.25 212.04-13.75 217.69-6.9 222.39-28.75 228.04-26.9 222.39 0ZM234.03-28.75L234.03-28.75 250.03-28.75 250.03-22.85 240.33-22.85 240.33-17.2 250.03-17.2 250.03-11.5 240.33-11.5 240.33-5.65 249.83-5.65 249.83 0 234.03 0 234.03-28.75ZM252.48-5.65L252.48-5.65 252.48 0 268.48 0 268.48-5.65 252.48-5.65ZM268.48-22.85L268.48-22.85 268.48-28.75 252.28-28.75 252.28-22.85 268.48-22.85ZM260.38-11.5L260.38-11.5 260.38-17.2 252.28-17.2 252.28-11.5 260.38-11.5ZM274.98 0L274.98-28.75 290.98-28.75 290.98-23.1 281.28-23.1 281.28-17.2 290.98-17.2 290.98-11.5 281.28-11.5 281.28-5.85 290.98-5.85 290.98 0 274.98 0ZM303.78 0L309.43-3.4 309.43-12.15 304.73-14.35 309.43-16.6 309.43-25.3 303.78-28.75 293.43-28.75 293.43-23.1 303.13-23.1 303.13-17.2 293.43-17.2 293.43-11.5 303.13-11.5 303.13-5.85 293.43-5.85 293.43 0 303.78 0ZM316.93-14.75L316.93-25.3 322.63-28.75 332.93-28.75 332.93-22.85 323.03-22.85 323.03-17.2 332.93-17.2 332.93-11.35 322.63-11.35 316.93-14.75ZM351.38-3.4L351.38-13.75 345.48-17.2 335.18-17.2 335.18-11.35 345.08-11.35 345.08-5.65 335.38-5.65 335.38 0 345.48 0 351.38-3.4ZM316.93-9.1L323.23-9.1 323.23-5.65 332.93-5.65 332.93 0 322.78 0 316.93-3.4 316.93-9.1ZM345.08-19.45L351.38-19.45 351.38-25.3 345.48-28.75 335.18-28.75 335.18-22.85 345.08-22.85 345.08-19.45ZM358.88-28.75L358.88-28.75 365.18-28.75 365.18 0 358.88 0 358.88-28.75ZM405.12-28.75L405.12-23.1 390.72-23.1 390.72 0 383.82 0 383.82-23.1 370.67-23.1 370.67-28.75 405.12-28.75ZM411.62-28.75L411.62-28.75 427.62-28.75 427.62-22.85 417.92-22.85 417.92-17.2 427.62-17.2 427.62-11.5 417.92-11.5 417.92-5.65 427.42-5.65 427.42 0 411.62 0 411.62-28.75ZM430.07-5.65L430.07-5.65 430.07 0 446.07 0 446.07-5.65 430.07-5.65ZM446.07-22.85L446.07-22.85 446.07-28.75 429.87-28.75 429.87-22.85 446.07-22.85ZM437.97-11.5L437.97-11.5 437.97-17.2 429.87-17.2 429.87-11.5 437.97-11.5Z" opacity="1" transform="matrix(1,0,0,1,0,0)" fill="#8d021f" class="undefined-text-1" data-fill-palette-color="secondary" id="text-1"></path></svg></g></svg></g></svg></g></svg></g><g transform="matrix(1,0,0,1,0,0.2694225525466578)"><svg viewBox="0 0 137.49830918752792 107.76902101866585" height="107.76902101866585" width="137.49830918752792"><g><svg xmlns="http://www.w3.org/2000/svg" xmlns:xlink="http://www.w3.org/1999/xlink" version="1.1" x="0" y="0" viewBox="0 0 99.63200378417969 78.09000396728516" enable-background="new 0 0 99.633 78.09" xml:space="preserve" width="137.49830918752792" height="107.76902101866585" class="icon-icon-0" data-fill-palette-color="accent" id="icon-0"><g fill="#8d021f" data-fill-palette-color="accent"><path d="M96.941 0H2.693C1.205 0 0 1.206 0 2.693v56.548c0 1.489 1.205 2.694 2.693 2.694h43.085v10.771h-8.079c-1.488 0-2.693 1.204-2.693 2.692 0 1.485 1.205 2.692 2.693 2.692h21.542c1.488 0 2.692-1.207 2.692-2.692 0-1.488-1.204-2.692-2.692-2.692h-8.078V61.935h45.777c1.488 0 2.692-1.205 2.692-2.694V2.693C99.633 1.206 98.429 0 96.941 0zM94.248 56.548H5.386V5.385h88.861V56.548z" fill="#8d021f" data-fill-palette-color="accent"></path><path d="M43.264 41.276c0.063 0.177 0.155 0.33 0.25 0.488 0.063 0.101 0.084 0.217 0.16 0.311 0.029 0.037 0.074 0.048 0.105 0.082 0.19 0.212 0.413 0.376 0.66 0.521 0.084 0.05 0.153 0.123 0.24 0.163 0.336 0.15 0.705 0.244 1.099 0.244l0 0c0.002 0 0.002 0 0.002 0 0.327 0 0.65-0.073 0.963-0.194 0.116-0.045 0.213-0.116 0.321-0.176 0.131-0.074 0.273-0.121 0.396-0.219l10.771-8.619c0.092-0.074 0.14-0.177 0.219-0.26 0.06-0.064 0.145-0.09 0.202-0.161 0.052-0.066 0.065-0.146 0.11-0.214 0.103-0.154 0.179-0.311 0.247-0.48 0.063-0.159 0.118-0.314 0.149-0.48 0.032-0.17 0.04-0.333 0.043-0.507-0.003-0.173-0.011-0.336-0.043-0.507-0.031-0.166-0.086-0.321-0.149-0.48-0.068-0.169-0.145-0.326-0.247-0.479-0.045-0.069-0.059-0.149-0.11-0.215-0.066-0.08-0.158-0.119-0.229-0.19-0.07-0.072-0.109-0.166-0.191-0.23L47.46 21.054c-0.095-0.074-0.208-0.097-0.308-0.157-0.161-0.099-0.313-0.192-0.494-0.256-0.177-0.062-0.353-0.083-0.537-0.107-0.118-0.016-0.221-0.07-0.344-0.07-0.053 0-0.095 0.026-0.147 0.031-0.182 0.009-0.352 0.059-0.529 0.106-0.168 0.044-0.333 0.078-0.486 0.153-0.143 0.066-0.261 0.168-0.39 0.26-0.158 0.114-0.311 0.222-0.439 0.368-0.034 0.037-0.082 0.054-0.113 0.093-0.076 0.095-0.097 0.209-0.16 0.311-0.095 0.158-0.187 0.31-0.25 0.487-0.063 0.181-0.086 0.361-0.11 0.548-0.016 0.114-0.068 0.217-0.068 0.336v17.235c0 0.119 0.053 0.223 0.068 0.337C43.177 40.915 43.201 41.095 43.264 41.276zM48.47 28.761l3.769 3.014-3.769 3.014V28.761z" fill="#8d021f" data-fill-palette-color="accent"></path></g></svg></g></svg></g></svg></g><defs></defs></svg><rect width="395.52" height="74.82802461786858" fill="none" stroke="none" visibility="hidden"></rect></g></svg></g></svg>